<svg xmlns="http://www.w3.org/2000/svg" width="24" height="24" viewBox="0 0 24 24" fill="none">
<path d="M7.5 11H4.6C4.04 11 3.76 11 3.546 11.109C3.35785 11.2049 3.20487 11.3578 3.109 11.546C3 11.76 3 12.04 3 12.6V21M16.5 11H19.4C19.96 11 20.24 11 20.454 11.109C20.6422 11.2049 20.7951 11.3578 20.891 11.546C21 11.76 21 12.04 21 12.6V21M16.5 21V6.2C16.5 5.08 16.5 4.52 16.282 4.092C16.0903 3.71569 15.7843 3.40974 15.408 3.218C14.98 3 14.42 3 13.3 3H10.7C9.58 3 9.02 3 8.592 3.218C8.21569 3.40974 7.90974 3.71569 7.718 4.092C7.5 4.52 7.5 5.08 7.5 6.2V21M22 21H2M11 7H13M11 11H13M11 15H13" stroke="white" stroke-width="2" stroke-linecap="round" stroke-linejoin="round"/>
</svg>