<svg xmlns="http://www.w3.org/2000/svg" width="24" height="24" viewBox="0 0 24 24" fill="none">
<path d="M2.002 12.0023C2.00256 14.3836 2.85247 16.6867 4.39896 18.4975C5.94545 20.3083 8.08711 21.5081 10.439 21.8813V14.8923H7.902V12.0023H10.442V9.80232C10.3859 9.28741 10.4439 8.76647 10.6118 8.27649C10.7797 7.78651 11.0535 7.33952 11.4136 6.96726C11.7738 6.59499 12.2115 6.3066 12.6956 6.12255C13.1798 5.9385 13.6985 5.86331 14.215 5.90232C14.965 5.91432 15.715 5.98132 16.455 6.10232V8.56132H15.191C14.9762 8.53319 14.7578 8.55369 14.5519 8.62131C14.3461 8.68893 14.1581 8.80194 14.0018 8.95199C13.8455 9.10204 13.7249 9.2853 13.649 9.48822C13.573 9.69114 13.5436 9.90853 13.563 10.1243V12.0023H16.334L15.891 14.8933H13.563V21.8813C15.4506 21.583 17.2132 20.7501 18.6422 19.4811C20.0711 18.2121 21.1065 16.5603 21.6258 14.7211C22.145 12.882 22.1264 10.9326 21.5722 9.10366C21.0179 7.27475 19.9512 5.64296 18.4984 4.40147C17.0455 3.15998 15.2673 2.36079 13.3744 2.09853C11.4814 1.83626 9.55292 2.1219 7.81725 2.92163C6.08158 3.72135 4.61141 5.00167 3.5808 6.611C2.55019 8.22033 2.0023 10.0913 2.002 12.0023Z" fill="white"/>
</svg>