<svg xmlns="http://www.w3.org/2000/svg" width="93" height="24" viewBox="0 0 93 24" fill="none">
<path d="M81.221 5.60594L79.2511 17.9522C79.2437 17.9976 79.2464 18.044 79.2589 18.0882C79.2714 18.1324 79.2934 18.1733 79.3234 18.2081C79.3535 18.2429 79.3908 18.2708 79.4327 18.2897C79.4747 18.3086 79.5203 18.3181 79.5663 18.3176H81.8976C81.9798 18.3183 82.0596 18.2896 82.1225 18.2367C82.1854 18.1838 82.2271 18.1101 82.2403 18.0291L84.2102 5.68284C84.2176 5.6375 84.2149 5.5911 84.2024 5.5469C84.1899 5.50269 84.1679 5.46175 84.1378 5.42693C84.1078 5.39212 84.0705 5.36428 84.0286 5.34537C83.9866 5.32646 83.941 5.31693 83.895 5.31745H81.5637C81.4812 5.31582 81.4009 5.3442 81.3379 5.39729C81.2748 5.45037 81.2332 5.52454 81.221 5.60594ZM78.7316 9.20888H76.5197C76.4375 9.20807 76.3578 9.23669 76.295 9.28954C76.2322 9.34239 76.1905 9.41596 76.1774 9.49688L76.1043 9.95141C76.1043 9.95141 74.3863 8.09312 71.3445 9.34896C69.5995 10.068 68.7619 11.5535 68.4054 12.6419C68.4054 12.6419 67.2742 15.9494 69.8328 17.77C69.8328 17.77 72.2053 19.521 74.8768 17.6623L74.8306 17.9522C74.8199 18.0203 74.8319 18.0901 74.8647 18.1508C74.8975 18.2114 74.9494 18.2597 75.0123 18.2882C75.054 18.3078 75.0997 18.3176 75.1459 18.3176H77.3593C77.4418 18.3192 77.5221 18.2909 77.5851 18.2378C77.6482 18.1847 77.6897 18.1105 77.702 18.0291L79.0483 9.57427C79.0558 9.52898 79.0532 9.48259 79.0405 9.43846C79.0279 9.39432 79.0056 9.35354 78.9752 9.31908C78.9452 9.28396 78.9078 9.25585 78.8657 9.23672C78.8236 9.21759 78.7779 9.20841 78.7316 9.20888ZM75.4768 13.8815C75.3905 14.4723 75.0911 15.0113 74.6347 15.3974C74.1764 15.785 73.5931 15.9943 72.9923 15.9867C72.7567 15.9894 72.5221 15.9554 72.2971 15.8858C71.3421 15.5821 70.7971 14.674 70.9537 13.6895C71.0407 13.0991 71.3404 12.5605 71.7968 12.1746C72.2547 11.7868 72.8375 11.5769 73.4382 11.5834C73.6738 11.581 73.9084 11.6153 74.1334 11.6853C75.0943 11.987 75.6369 12.8966 75.4792 13.882H75.4768V13.8815ZM63.6653 14.1152C64.8648 14.1152 66.0251 13.69 66.9364 12.9171C67.8458 12.1468 68.4479 11.0766 68.6333 9.90096C69.0207 7.45541 67.0915 5.32088 64.3567 5.32088H59.9509C59.8687 5.32009 59.7889 5.34878 59.7261 5.40173C59.6633 5.45468 59.6216 5.52836 59.6087 5.60937L57.6383 17.9557C57.6276 18.0238 57.6396 18.0935 57.6724 18.1542C57.7052 18.2149 57.7571 18.2631 57.82 18.2917C57.8622 18.3112 57.9074 18.321 57.9535 18.321H60.2863C60.3685 18.3218 60.4483 18.2931 60.5111 18.2402C60.5739 18.1872 60.6156 18.1136 60.6285 18.0326L61.2069 14.4071C61.2191 14.3256 61.2606 14.2513 61.3236 14.1981C61.3867 14.1449 61.467 14.1165 61.5496 14.1181L63.6653 14.1152ZM65.6166 9.78978C65.4727 10.6939 64.7666 11.3596 63.4159 11.3596H61.6891L62.2134 8.07157H63.9094C65.3058 8.07402 65.7604 8.88953 65.6166 9.79222V9.78978Z" fill="#0070E0"/>
<path d="M54.9806 9.41845L52.3125 13.878L50.9583 9.45127C50.9372 9.38062 50.8935 9.31877 50.834 9.27503C50.7745 9.2313 50.7023 9.20806 50.6284 9.20882H48.2205C48.1583 9.20798 48.0978 9.22962 48.0502 9.26977C48.0027 9.30991 47.9713 9.36585 47.9618 9.42727C47.9559 9.46799 47.9601 9.50952 47.9741 9.54825L50.4006 17.0049L48.2058 20.5187C48.1872 20.5476 48.1747 20.58 48.169 20.614C48.1634 20.6479 48.1647 20.6826 48.173 20.716C48.1813 20.7493 48.1963 20.7807 48.2171 20.8081C48.238 20.8355 48.2642 20.8583 48.2942 20.8753C48.3343 20.8983 48.38 20.9101 48.4263 20.9096H51.0197C51.0937 20.9098 51.1666 20.891 51.2312 20.855C51.2958 20.8189 51.3499 20.7669 51.3885 20.7038L58.1662 9.60163C58.1908 9.56297 58.2043 9.51835 58.2052 9.47259C58.2062 9.42683 58.1945 9.38168 58.1716 9.34204C58.1487 9.30226 58.1155 9.26934 58.0756 9.24668C58.0356 9.22403 57.9902 9.21247 57.9443 9.21323H55.3518C55.2774 9.21254 55.2042 9.23109 55.1391 9.26705C55.074 9.30302 55.0194 9.35518 54.9806 9.41845ZM46.8556 9.20882H44.6417C44.5593 9.20803 44.4794 9.23677 44.4165 9.28981C44.3536 9.34285 44.3119 9.41666 44.2989 9.4978L44.2273 9.95184C44.2273 9.95184 42.5078 8.09355 39.466 9.34939C37.7215 10.0684 36.8834 11.554 36.5284 12.6423C36.5284 12.6423 35.3962 15.9499 37.9543 17.7704C37.9543 17.7704 40.3273 19.5215 42.9988 17.6627L42.9526 17.9527C42.9418 18.0208 42.9537 18.0906 42.9865 18.1513C43.0193 18.212 43.0713 18.2603 43.1343 18.2887C43.176 18.3082 43.2217 18.318 43.2678 18.318H45.4813C45.5634 18.3186 45.6431 18.2899 45.7059 18.237C45.7686 18.184 45.8104 18.1105 45.8235 18.0296L47.1703 9.57469C47.1813 9.50649 47.1694 9.43658 47.1366 9.37576C47.1038 9.31494 47.0518 9.2666 46.9886 9.2382C46.9467 9.21897 46.9017 9.20895 46.8556 9.20882ZM43.6002 13.8824C43.5131 14.4725 43.2136 15.0106 42.7577 15.3964C42.2997 15.7839 41.7169 15.9937 41.1163 15.9871C40.881 15.9897 40.6468 15.9557 40.422 15.8862C39.4675 15.5825 38.923 14.6744 39.0796 13.6895C39.1669 13.0977 39.4677 12.5582 39.9256 12.1721C40.3853 11.7843 40.97 11.5754 41.5719 11.5838C41.8076 11.5814 42.0428 11.6157 42.2677 11.6857C43.2187 11.9874 43.7603 12.8965 43.6032 13.8824H43.6002ZM31.7893 14.1156C32.9868 14.115 34.145 13.6898 35.0574 12.9161C35.9659 12.1458 36.5673 11.0759 36.7523 9.9009C37.1402 7.45584 35.2106 5.32131 32.4767 5.32131H28.0705C27.9882 5.32048 27.9085 5.34909 27.8456 5.40193C27.7827 5.45477 27.7409 5.52835 27.7277 5.60931L25.7637 17.9522C25.7528 18.0204 25.7646 18.0903 25.7975 18.1511C25.8303 18.2119 25.8823 18.2603 25.9454 18.2887C25.9872 18.3078 26.0328 18.318 26.079 18.318H28.4102C28.4926 18.3188 28.5725 18.2901 28.6354 18.237C28.6983 18.184 28.74 18.1102 28.7529 18.0291L29.3304 14.4036C29.3426 14.3222 29.3842 14.248 29.4472 14.1949C29.5103 14.1419 29.5906 14.1135 29.6731 14.1151L31.7893 14.1156ZM33.7405 9.78972C33.5966 10.6939 32.8911 11.3595 31.5403 11.3595H29.8135L30.3369 8.07151H32.0328C33.4297 8.07396 33.8839 8.88996 33.7405 9.79216V9.78972Z" fill="#003087"/>
<path d="M16.7181 5.95533C16.7706 3.22912 14.5165 1.1377 11.4168 1.1377H5.00534C4.85593 1.13763 4.7114 1.19078 4.5978 1.28758C4.4842 1.38439 4.40898 1.51847 4.3857 1.6657L1.81679 17.6786C1.8053 17.7512 1.80971 17.8253 1.82971 17.896C1.84972 17.9667 1.88484 18.0323 1.93267 18.0881C1.9805 18.144 2.0399 18.1889 2.10678 18.2196C2.17366 18.2504 2.24642 18.2663 2.32007 18.2663H6.11843L5.52481 21.9741C5.51332 22.0467 5.51773 22.1209 5.53773 22.1916C5.55774 22.2623 5.59286 22.3278 5.64069 22.3837C5.68852 22.4395 5.74792 22.4844 5.8148 22.5151C5.88168 22.5459 5.95444 22.5618 6.02808 22.5619H9.12236C9.27162 22.5619 9.40468 22.5085 9.51859 22.412C9.63152 22.315 9.65018 22.1813 9.67375 22.0339L10.5821 16.7029C10.6052 16.556 10.6803 16.365 10.7937 16.268C10.9071 16.171 11.0063 16.1181 11.1561 16.1181H13.0494C16.0852 16.1181 18.6605 13.9655 19.1314 10.9718C19.4647 8.84708 18.5515 6.91386 16.7181 5.95533Z" fill="#001C64"/>
<path d="M6.94023 12.3611L5.99407 18.3454L5.39997 22.0992C5.38855 22.1718 5.39302 22.246 5.41309 22.3167C5.43316 22.3873 5.46835 22.4528 5.51622 22.5086C5.5641 22.5645 5.62353 22.6093 5.69043 22.64C5.75732 22.6707 5.83009 22.6865 5.90373 22.6865H9.17869C9.32796 22.6864 9.4723 22.6332 9.58572 22.5364C9.69914 22.4396 9.77419 22.3056 9.79735 22.1585L10.6605 16.7027C10.6838 16.5555 10.7589 16.4215 10.8724 16.3247C10.9859 16.2279 11.1303 16.1747 11.2797 16.1747H13.2073C16.2432 16.1747 18.8185 13.9657 19.2898 10.9721C19.6237 8.84732 18.5514 6.91361 16.718 5.95508C16.7131 6.18136 16.6934 6.40716 16.6586 6.631C16.1877 9.62365 13.6114 11.8331 10.5766 11.8331H7.55938C7.41001 11.8333 7.2656 11.8866 7.15211 11.9835C7.03861 12.0803 6.96349 12.2139 6.94023 12.3611Z" fill="#0070E0"/>
<path d="M5.99358 18.3457H2.18343C2.1098 18.3457 2.03705 18.3298 1.97019 18.299C1.90333 18.2682 1.84396 18.2233 1.79617 18.1675C1.74837 18.1116 1.71329 18.0461 1.69335 17.9754C1.67341 17.9047 1.66907 17.8305 1.68065 17.7579L4.24955 1.50749C4.27282 1.36035 4.34797 1.22633 4.46147 1.12954C4.57497 1.03275 4.71937 0.979539 4.8687 0.979492H11.4167C14.5163 0.979492 16.7705 3.22961 16.718 5.95533C15.9466 5.55174 15.0402 5.32104 14.0474 5.32104H8.5885C8.43909 5.32097 8.29457 5.37413 8.18097 5.47093C8.06736 5.56773 7.99214 5.70182 7.96886 5.84904L6.94071 12.3614L5.99308 18.3457H5.99358Z" fill="#003087"/>
</svg>