<svg xmlns="http://www.w3.org/2000/svg" width="24" height="24" viewBox="0 0 24 24" fill="none">
<path d="M14.05 6C15.0267 6.19057 15.9244 6.66826 16.6281 7.37194C17.3317 8.07561 17.8094 8.97326 18 9.95M14.05 2C16.0793 2.22544 17.9716 3.13417 19.4162 4.57701C20.8609 6.01984 21.772 7.91101 22 9.94M10.227 13.863C9.05814 12.6969 8.09549 11.341 7.38 9.853C7.33484 9.76771 7.29703 9.67872 7.267 9.587C7.22785 9.44122 7.22072 9.2887 7.2461 9.1399C7.27147 8.99111 7.32875 8.84957 7.414 8.725C7.462 8.658 7.519 8.601 7.634 8.487C7.984 8.137 8.158 7.963 8.272 7.787C8.48288 7.46257 8.59512 7.08394 8.59512 6.697C8.59512 6.31006 8.48288 5.93143 8.272 5.607C8.158 5.431 7.983 5.256 7.634 4.907L7.439 4.711C6.907 4.18 6.642 3.914 6.356 3.77C6.07619 3.62851 5.76704 3.5548 5.4535 3.5548C5.13995 3.5548 4.8308 3.62851 4.551 3.77C4.266 3.914 4 4.18 3.468 4.711L3.311 4.869C2.781 5.399 2.516 5.663 2.314 6.023C2.09 6.423 1.928 7.043 1.93 7.502C1.93 7.915 2.011 8.197 2.171 8.762C3.06057 11.8944 4.7387 14.7463 7.045 17.045C9.34388 19.3509 12.1957 21.0287 15.328 21.918C15.893 22.078 16.175 22.158 16.588 22.16C17.1035 22.1465 17.6091 22.0152 18.066 21.776C18.426 21.573 18.691 21.308 19.221 20.779L19.378 20.621C19.91 20.09 20.175 19.824 20.32 19.539C20.4616 19.2591 20.5355 18.9497 20.5355 18.636C20.5355 18.3223 20.4616 18.0129 20.32 17.733C20.175 17.448 19.91 17.183 19.378 16.651L19.183 16.456C18.833 16.106 18.659 15.932 18.483 15.817C18.1586 15.6061 17.7799 15.4939 17.393 15.4939C17.0061 15.4939 16.6274 15.6061 16.303 15.817C16.127 15.931 15.953 16.107 15.603 16.456C15.488 16.57 15.431 16.627 15.364 16.676C15.127 16.846 14.783 16.904 14.502 16.822C14.4103 16.792 14.3213 16.7542 14.236 16.709C12.7481 15.9938 11.3922 15.0315 10.226 13.863H10.227Z" stroke="white" stroke-width="2" stroke-linecap="round" stroke-linejoin="round"/>
</svg>